<svg viewBox="0 0 800 160" xmlns="http://www.w3.org/2000/svg">
  <style>
    .background { fill: #080d16; rx: 12px; }
    .border { stroke: #30363d; stroke-width: 1.5; fill: none; rx: 12px; }
    .title {
      font-family: -apple-system, BlinkMacSystemFont, 'Segoe UI', Roboto, sans-serif;
      font-weight: 900;
      font-size: 38px;
      fill: #ffffff;
      letter-spacing: 6px;
      text-shadow: 0px 0px 15px rgba(0, 240, 255, 0.5);
    }
    .subtitle {
      font-family: -apple-system, BlinkMacSystemFont, 'Segoe UI', Roboto, sans-serif;
      font-weight: 700;
      font-size: 11px;
      fill: #8b949e;
      letter-spacing: 3px;
      opacity: 0.8;
    }
    .hud-text {
      font-family: monospace;
      font-size: 10px;
      fill: #58a6ff;
    }
    .pulse-dot {
      fill: #238636;
      animation: pulse 2s infinite;
    }
    @keyframes pulse {
      0% { opacity: 0.3; }
      50% { opacity: 1; }
      100% { opacity: 0.3; }
    }
  </style>

  <rect width="800" height="160" class="background" />
  
  <!-- Radar Sweep -->
  <g transform="translate(60, 80)">
    <circle r="40" fill="none" stroke="#58a6ff" stroke-width="1" opacity="0.15" />
    <circle r="25" fill="none" stroke="#58a6ff" stroke-width="1" opacity="0.15" />
    <circle r="10" fill="none" stroke="#58a6ff" stroke-width="1" opacity="0.1" />
    <line x1="-40" y1="0" x2="40" y2="0" stroke="#58a6ff" stroke-width="0.5" opacity="0.1" />
    <line x1="0" y1="-40" x2="0" y2="40" stroke="#58a6ff" stroke-width="0.5" opacity="0.1" />
    <line x1="0" y1="0" x2="28" y2="-28" stroke="#58a6ff" stroke-width="1.5" stroke-linecap="round" opacity="0.7">
      <animateTransform attributeName="transform" type="rotate" from="0 0 0" to="360 0 0" dur="4s" repeatCount="indefinite" />
    </line>
  </g>
  <text x="60" y="142" class="hud-text" text-anchor="middle">[ SCANNING ]</text>

  <!-- Coordinates & Info (Left Panel) -->
  <text x="140" y="50" class="hud-text">SYS_LOC: KOLKATA, IN</text>
  <text x="140" y="70" class="hud-text">LAT_N : 22.5726°</text>
  <text x="140" y="90" class="hud-text">LON_E : 88.3639°</text>

  <!-- Center Title & Subtitle -->
  <text x="400" y="75" text-anchor="middle" class="title">PRITAM PALIT</text>
  <text x="400" y="105" text-anchor="middle" class="subtitle">DATA SCIENTIST • AI ENGINEER • VIBE CODER</text>

  <!-- Status indicators (Right Panel) -->
  <g transform="translate(620, 40)">
    <!-- Resource bars -->
    <text x="0" y="10" class="hud-text">DATA_ANALYTICS: 90%</text>
    <rect x="0" y="15" width="120" height="4" fill="#30363d" rx="2" />
    <rect x="0" y="15" width="108" height="4" fill="#58a6ff" rx="2" />
    
    <text x="0" y="32" class="hud-text">AI_PROMPTING  : 100%</text>
    <rect x="0" y="37" width="120" height="4" fill="#30363d" rx="2" />
    <rect x="0" y="37" width="120" height="4" fill="#58a6ff" rx="2" />

    <text x="0" y="54" class="hud-text">VIBE_CODING   : 100%</text>
    <rect x="0" y="59" width="120" height="4" fill="#30363d" rx="2" />
    <rect x="0" y="59" width="120" height="4" fill="#ff007f" rx="2" />
  </g>
  
  <!-- Glowing Pulse dot and Status -->
  <g transform="translate(755, 30)">
    <circle cx="0" cy="0" r="5" class="pulse-dot" />
    <circle cx="0" cy="0" r="8" fill="none" stroke="#238636" stroke-width="1" opacity="0.5">
      <animate attributeName="r" from="5" to="12" dur="2s" repeatCount="indefinite" />
      <animate attributeName="opacity" from="0.5" to="0" dur="2s" repeatCount="indefinite" />
    </circle>
  </g>
  <text x="740" y="33" class="hud-text" text-anchor="end">SYS_ACTIVE</text>
  
  <!-- HUD Corner Brackets -->
  <path d="M 10 20 L 20 20 M 10 20 L 10 30" stroke="#30363d" stroke-width="1.5" fill="none" />
  <path d="M 790 20 L 780 20 M 790 20 L 790 30" stroke="#30363d" stroke-width="1.5" fill="none" />
  <path d="M 10 140 L 20 140 M 10 140 L 10 130" stroke="#30363d" stroke-width="1.5" fill="none" />
  <path d="M 790 140 L 780 140 M 790 140 L 790 130" stroke="#30363d" stroke-width="1.5" fill="none" />

  <!-- Stripe-Style Reflection Sweep -->
  <defs>
    <linearGradient id="header-sweep" x1="0%" y1="0%" x2="30%" y2="100%">
      <stop offset="0%" stop-color="#ffffff" stop-opacity="0" />
      <stop offset="30%" stop-color="#ffffff" stop-opacity="0" />
      <stop offset="50%" stop-color="#ffffff" stop-opacity="0.08" />
      <stop offset="70%" stop-color="#ffffff" stop-opacity="0" />
      <stop offset="100%" stop-color="#ffffff" stop-opacity="0" />
    </linearGradient>
  </defs>
  <rect width="800" height="160" fill="url(#header-sweep)" pointer-events="none" rx="12">
    <animate attributeName="x" from="-800" to="800" dur="8s" repeatCount="indefinite" />
  </rect>

  <rect width="800" height="160" class="border" />
</svg>